# xmcd
#
# Track frame offsets:
#	150
#	22586
#	47972
#	72906
#	78403
#	112290
#	139252
#	155916
#
# Disc length: 2553 seconds
#
# Revision: 1
# Processed by: cddbd v1.5.2PL0 Copyright (c) Steve Scherf et al.
# Submitted via: audiograbber 1.83.01
#
DISCID=6e09f708
DTITLE=Anke Angel - Live
DYEAR=2007
DGENRE=Blues
TTITLE0=Everyday I Have The Blues
TTITLE1=Let´s Do The Woogie Boogie
TTITLE2=I´m A Music Making Mama
TTITLE3=The Shake Of Araby
TTITLE4=Long Tall Mama
TTITLE5=Medley: Choo Choo Chi Boogie
TTITLE6=What A Wonderful World
TTITLE7=Medley: Walk On
EXTD=Boogie Lady Live In Ludwigsburg
EXTT0=
EXTT1=
EXTT2=
EXTT3=
EXTT4=
EXTT5=
EXTT6=
EXTT7=
PLAYORDER=
